<svg width="42" height="36" viewBox="0 0 42 36" fill="none" xmlns="http://www.w3.org/2000/svg">
<g opacity="0.9">
<rect width="41.2767" height="35.38" rx="3" fill="#D6D7D8"/>
<line opacity="0.5" x1="0.0288086" y1="5.97119" x2="41.3233" y2="5.97119" stroke="#181B25" stroke-width="0.5"/>
<line opacity="0.5" x1="0.0288086" y1="13.6978" x2="41.3233" y2="13.6978" stroke="#181B25" stroke-width="0.5"/>
<line opacity="0.5" x1="0.0288086" y1="21.3672" x2="41.3233" y2="21.3672" stroke="#181B25" stroke-width="0.5"/>
<line opacity="0.5" x1="0.0288086" y1="29.0918" x2="41.3233" y2="29.0918" stroke="#181B25" stroke-width="0.5"/>
<line opacity="0.5" x1="20.8882" y1="28.7754" x2="20.8882" y2="35.8514" stroke="#181B25" stroke-width="0.5"/>
<line opacity="0.5" x1="20.8882" x2="20.8882" y2="6.22172" stroke="#181B25" stroke-width="0.5"/>
</g>
<mask id="path-8-inside-1" fill="white">
<path fill-rule="evenodd" clip-rule="evenodd" d="M27.9801 13.9161C27.5891 15.161 26.8634 16.2577 25.9084 17.1006C27.3774 18.3971 28.3039 20.2941 28.3039 22.4075C28.3039 26.3155 25.1358 29.4835 21.2279 29.4835C17.3199 29.4835 14.1519 26.3155 14.1519 22.4075C14.1519 20.2941 15.0784 18.397 16.5475 17.1004C15.0785 15.8039 14.152 13.9069 14.152 11.7935C14.152 7.6658 17.32 5.30713 21.228 5.30713C22.1563 5.30713 23.0428 5.42372 23.855 5.66075H41.2765V13.9161H27.9801Z"/>
</mask>
<path fill-rule="evenodd" clip-rule="evenodd" d="M27.9801 13.9161C27.5891 15.161 26.8634 16.2577 25.9084 17.1006C27.3774 18.3971 28.3039 20.2941 28.3039 22.4075C28.3039 26.3155 25.1358 29.4835 21.2279 29.4835C17.3199 29.4835 14.1519 26.3155 14.1519 22.4075C14.1519 20.2941 15.0784 18.397 16.5475 17.1004C15.0785 15.8039 14.152 13.9069 14.152 11.7935C14.152 7.6658 17.32 5.30713 21.228 5.30713C22.1563 5.30713 23.0428 5.42372 23.855 5.66075H41.2765V13.9161H27.9801Z" fill="#D6D7D8"/>
<path d="M25.9084 17.1006L25.5775 16.7257L25.1528 17.1005L25.5775 17.4754L25.9084 17.1006ZM27.9801 13.9161V13.4161H27.6131L27.5031 13.7663L27.9801 13.9161ZM16.5475 17.1004L16.8784 17.4753L17.3031 17.1004L16.8784 16.7256L16.5475 17.1004ZM23.855 5.66075L23.7149 6.14073L23.7835 6.16075H23.855V5.66075ZM41.2765 5.66075H41.7765V5.16075H41.2765V5.66075ZM41.2765 13.9161V14.4161H41.7765V13.9161H41.2765ZM26.2392 17.4754C27.2611 16.5735 28.0383 15.3996 28.4571 14.0659L27.5031 13.7663C27.14 14.9224 26.4657 15.9418 25.5775 16.7257L26.2392 17.4754ZM28.8039 22.4075C28.8039 20.1447 27.8112 18.1132 26.2392 16.7257L25.5775 17.4754C26.9435 18.6811 27.8039 20.4435 27.8039 22.4075H28.8039ZM21.2279 29.9835C25.412 29.9835 28.8039 26.5916 28.8039 22.4075H27.8039C27.8039 26.0393 24.8597 28.9835 21.2279 28.9835V29.9835ZM13.6519 22.4075C13.6519 26.5916 17.0437 29.9835 21.2279 29.9835V28.9835C17.596 28.9835 14.6519 26.0393 14.6519 22.4075H13.6519ZM16.2166 16.7256C14.6446 18.113 13.6519 20.1446 13.6519 22.4075H14.6519C14.6519 20.4435 15.5123 18.681 16.8784 17.4753L16.2166 16.7256ZM13.652 11.7935C13.652 14.0563 14.6447 16.0878 16.2166 17.4753L16.8784 16.7256C15.5123 15.5199 14.652 13.7575 14.652 11.7935H13.652ZM21.228 4.80713C19.1768 4.80713 17.2849 5.42625 15.8977 6.62397C14.5022 7.82893 13.652 9.59109 13.652 11.7935H14.652C14.652 9.86817 15.3858 8.38717 16.5513 7.38087C17.7251 6.36734 19.3712 5.80713 21.228 5.80713V4.80713ZM23.9951 5.18077C23.1318 4.92883 22.1975 4.80713 21.228 4.80713V5.80713C22.1151 5.80713 22.9538 5.91861 23.7149 6.14073L23.9951 5.18077ZM23.855 6.16075H41.2765V5.16075H23.855V6.16075ZM40.7765 5.66075V13.9161H41.7765V5.66075H40.7765ZM41.2765 13.4161H27.9801V14.4161H41.2765V13.4161Z" fill="#84858A" mask="url(#path-8-inside-1)"/>
</svg>
