<svg width="40" height="26" viewBox="0 0 40 26" fill="none" xmlns="http://www.w3.org/2000/svg">
<path d="M25.2774 4.52979H14.7256V21.4672H25.2774V4.52979Z" fill="#FF5F00"/>
<path d="M15.8124 13C15.8111 11.3691 16.1873 9.75921 16.9126 8.29227C17.6378 6.82533 18.693 5.53974 19.9985 4.53278C18.3816 3.284 16.4399 2.50747 14.3953 2.29191C12.3506 2.07636 10.2855 2.43049 8.43597 3.31383C6.58642 4.19717 5.02706 5.57408 3.9361 7.2872C2.84514 9.00031 2.2666 10.9805 2.2666 13.0015C2.2666 15.0224 2.84514 17.0026 3.9361 18.7158C5.02706 20.4289 6.58642 21.8058 8.43597 22.6891C10.2855 23.5725 12.3506 23.9266 14.3953 23.711C16.4399 23.4955 18.3816 22.719 19.9985 21.4702C18.6926 20.4629 17.6371 19.1768 16.9119 17.7093C16.1866 16.2418 15.8107 14.6314 15.8124 13Z" fill="#EB001B"/>
<path d="M36.6847 19.6752V19.3282H36.8369V19.2563H36.4746V19.3282H36.6177V19.6752H36.6847ZM37.3879 19.6752V19.2563H37.2783L37.1505 19.5555L37.0226 19.2563H36.913V19.6752H36.9922V19.3581L37.1109 19.6303H37.1931L37.3118 19.3581V19.6752H37.3879Z" fill="#F79E1B"/>
<path d="M37.732 12.9998C37.732 15.0209 37.1533 17.0013 36.0621 18.7144C34.971 20.4276 33.4114 21.8045 31.5616 22.6877C29.7118 23.5709 27.6465 23.9248 25.6017 23.709C23.557 23.4931 21.6152 22.7162 19.9985 21.467C21.3034 20.4592 22.3584 19.1732 23.0838 17.7062C23.8092 16.2392 24.1862 14.6294 24.1862 12.9983C24.1862 11.3673 23.8092 9.75747 23.0838 8.29045C22.3584 6.82343 21.3034 5.53748 19.9985 4.52963C21.6152 3.28046 23.557 2.50355 25.6017 2.28769C27.6465 2.07183 29.7118 2.42573 31.5616 3.30894C33.4114 4.19216 34.971 5.56905 36.0621 7.28222C37.1533 8.99539 37.732 10.9757 37.732 12.9968V12.9998Z" fill="#F79E1B"/>
</svg>
