<svg width="48" height="48" viewBox="0 0 48 48" fill="none" xmlns="http://www.w3.org/2000/svg">
<path d="M39.0376 16.9077C38.5244 13.8578 37.0142 11.0743 34.7045 8.96202C32.1382 6.61285 28.802 5.31982 25.3276 5.31982C22.6428 5.31982 20.0271 6.08972 17.7866 7.54068C15.921 8.74487 14.3714 10.3735 13.2758 12.2884C12.802 12.1995 12.3085 12.1502 11.8149 12.1502C7.61999 12.1502 4.20481 15.5654 4.20481 19.7603C4.20481 20.3032 4.26403 20.8263 4.36274 21.3396C1.64837 23.3137 0 26.4919 0 29.8775C0 32.6116 1.01666 35.2668 2.8723 37.3692C4.7773 39.5209 7.29426 40.7942 9.97903 40.9423C10.0086 40.9423 10.0284 40.9423 10.058 40.9423H18.5466C19.2869 40.9423 19.8791 40.3501 19.8791 39.6098C19.8791 38.8695 19.2869 38.2773 18.5466 38.2773H10.0975C6.06046 38.0305 2.66502 34.1909 2.66502 29.8676C2.66502 27.0743 4.16533 24.4685 6.58359 23.057C7.14621 22.7313 7.3831 22.0502 7.16595 21.4383C6.96854 20.9053 6.86983 20.3427 6.86983 19.7406C6.86983 17.0163 9.09068 14.7955 11.8149 14.7955C12.3973 14.7955 12.9698 14.8942 13.5028 15.0916C14.1542 15.3285 14.8748 15.0323 15.1709 14.4105C17.0167 10.4919 21.0043 7.96511 25.3374 7.96511C31.161 7.96511 35.9679 12.3278 36.5207 18.1119C36.5799 18.714 37.0339 19.1977 37.6262 19.2964C42.0185 20.0465 45.335 24.1033 45.335 28.7325C45.335 33.6381 41.4756 37.9022 36.7181 38.2674H29.4436C28.7033 38.2674 28.111 38.8596 28.111 39.5999C28.111 40.3402 28.7033 40.9324 29.4436 40.9324H36.7674C36.797 40.9324 36.8267 40.9324 36.8661 40.9324C39.8766 40.7153 42.6897 39.3334 44.7822 37.0237C46.8649 34.7338 48 31.7924 48 28.7325C47.9901 23.1952 44.2098 18.2699 39.0376 16.9077Z" fill="#9DA7BE"/>
<path d="M32.0002 31.1412C32.5233 30.618 32.5233 29.779 32.0002 29.2559L24.9428 22.1985C24.696 21.9518 24.3506 21.8037 24.0051 21.8037C23.6596 21.8037 23.3142 21.9419 23.0674 22.1985L16.01 29.2559C15.4869 29.779 15.4869 30.618 16.01 31.1412C16.2667 31.3978 16.6121 31.536 16.9477 31.536C17.2833 31.536 17.6288 31.4077 17.8854 31.1412L22.6726 26.354V41.3552C22.6726 42.0955 23.2648 42.6877 24.0051 42.6877C24.7454 42.6877 25.3376 42.0955 25.3376 41.3552V26.354L30.1248 31.1412C30.638 31.6643 31.477 31.6643 32.0002 31.1412Z" fill="#9DA7BE"/>
</svg>
