<svg width="51" height="17" viewBox="0 0 51 17" fill="none" xmlns="http://www.w3.org/2000/svg">
<g clip-path="url(#clip0)">
<path d="M22.0996 16.7568H17.9683L20.5523 0.300293H24.6835L22.0996 16.7568Z" fill="#00579F"/>
<path d="M37.0766 0.702569C36.2617 0.369596 34.9692 0.00195312 33.3711 0.00195312C29.2912 0.00195312 26.4182 2.24271 26.4006 5.44632C26.3667 7.80994 28.4576 9.12275 30.0214 9.91086C31.6197 10.7162 32.1631 11.2418 32.1631 11.9597C32.1468 13.0621 30.8715 13.5703 29.682 13.5703C28.0326 13.5703 27.1488 13.3083 25.8057 12.6949L25.2617 12.432L24.6836 16.1261C25.6526 16.5808 27.4378 16.9843 29.2912 17.0019C33.6261 17.0019 36.4483 14.7959 36.4817 11.3819C36.4982 9.50855 35.3942 8.07311 33.0139 6.90014C31.5689 6.14717 30.684 5.63945 30.684 4.86903C30.7009 4.16865 31.4325 3.45128 33.0636 3.45128C34.4067 3.41614 35.3935 3.74865 36.141 4.08139L36.5147 4.25614L37.0766 0.702569Z" fill="#00579F"/>
<path d="M42.5672 10.9268C42.9074 9.98141 44.2166 6.32243 44.2166 6.32243C44.1994 6.35756 44.5562 5.35958 44.7602 4.74691L45.0489 6.1649C45.0489 6.1649 45.8312 10.104 46.0011 10.9268C45.3555 10.9268 43.3832 10.9268 42.5672 10.9268ZM47.6668 0.300293H44.4712C43.4858 0.300293 42.7371 0.597665 42.3119 1.66569L36.1753 16.7565H40.5102C40.5102 16.7565 41.2239 14.7254 41.3773 14.288C41.8528 14.288 46.0698 14.288 46.6816 14.288C46.8002 14.8657 47.1745 16.7565 47.1745 16.7565H50.9998L47.6668 0.300293Z" fill="#00579F"/>
<path d="M14.5178 0.300293L10.4719 11.522L10.0297 9.24613C9.28174 6.62004 6.93581 3.76685 4.31787 2.34816L8.02383 16.7393H12.3926L18.8864 0.300293H14.5178Z" fill="#00579F"/>
<path d="M6.71495 0.300293H0.068001L0 0.632801C5.18504 1.99843 8.61899 5.29024 10.0298 9.24682L8.58488 1.68361C8.34698 0.632568 7.61591 0.334963 6.71495 0.300293Z" fill="#FAA61A"/>
</g>
<defs>
<clipPath id="clip0">
<rect width="51" height="17" fill="white"/>
</clipPath>
</defs>
</svg>
